<svg width="10" height="16" viewBox="0 0 10 16" fill="none" xmlns="http://www.w3.org/2000/svg">
<path d="M4.10672 15.5V0H5.04998V15.5H4.10672ZM6.82725 4.95879C6.77356 4.43002 6.54733 4.0183 6.14857 3.72364C5.75361 3.42897 5.23977 3.28164 4.60708 3.28164C4.16232 3.28164 3.78078 3.35228 3.46251 3.49356C3.14426 3.63483 2.90077 3.82656 2.73205 4.06875C2.56333 4.31093 2.47706 4.58744 2.47322 4.89826C2.47322 5.15657 2.52882 5.3806 2.64002 5.57033C2.75506 5.76001 2.91035 5.92147 3.10591 6.05468C3.30147 6.18387 3.51811 6.29282 3.75585 6.38165C3.99359 6.47044 4.23326 6.54512 4.47479 6.60569L5.57913 6.89631C6.02393 7.00526 6.45148 7.15261 6.86175 7.33829C7.2759 7.52396 7.64591 7.75806 7.97183 8.04062C8.3016 8.32318 8.56233 8.66427 8.75405 9.06388C8.94578 9.46348 9.04167 9.93172 9.04167 10.4686C9.04167 11.1951 8.86525 11.8349 8.51248 12.3879C8.15971 12.9369 7.64976 13.3667 6.98254 13.6776C6.3192 13.9843 5.51588 14.1377 4.57258 14.1377C3.65615 14.1377 2.8605 13.9883 2.18564 13.6897C1.51461 13.391 0.989291 12.955 0.60968 12.3818C0.233902 11.8087 0.0306757 11.1103 0 10.2869H2.09936C2.13004 10.7188 2.25658 11.0781 2.47897 11.3646C2.70138 11.6513 2.99088 11.8652 3.34748 12.0065C3.70792 12.1477 4.11053 12.2184 4.55533 12.2184C5.01929 12.2184 5.42575 12.1457 5.7747 12.0004C6.12747 11.851 6.40354 11.6452 6.60292 11.3828C6.80231 11.1164 6.90394 10.8056 6.90779 10.4504C6.90394 10.1275 6.81385 9.86109 6.63746 9.65116C6.46104 9.43723 6.21372 9.25965 5.89549 9.11835C5.58103 8.97304 5.21296 8.84389 4.79116 8.73085L3.45101 8.3676C2.48089 8.1052 1.714 7.70763 1.15033 7.17482C0.590507 6.63796 0.310591 5.92552 0.310591 5.03752C0.310591 4.30692 0.498481 3.66713 0.874257 3.11817C1.25387 2.56921 1.7696 2.14336 2.42146 1.84063C3.07332 1.53386 3.81145 1.38047 4.63587 1.38047C5.47178 1.38047 6.20416 1.53386 6.833 1.84063C7.46568 2.14336 7.96224 2.56517 8.3227 3.10606C8.68311 3.64291 8.86909 4.26049 8.88059 4.95879H6.82725Z" fill="white"/>
</svg>
