<svg width="33" height="33" viewBox="0 0 33 33" fill="none" xmlns="http://www.w3.org/2000/svg">
<path fill-rule="evenodd" clip-rule="evenodd" d="M1.33765 14.3793C1.33765 7.54414 7.94546 2.34082 16.0514 2.34082C24.1573 2.34082 30.7651 7.54414 30.7651 14.3793C30.7651 18.1447 28.6317 21.5623 25.8695 24.2777C23.1419 26.9008 19.9299 28.968 16.4126 30.3638C16.2605 30.4225 16.0965 30.4432 15.9347 30.4243C15.7729 30.4053 15.6181 30.3472 15.4837 30.255C15.3494 30.1628 15.2395 30.0393 15.1636 29.8951C15.0878 29.7509 15.0481 29.5904 15.0482 29.4275V26.0567C7.44385 25.6822 1.33765 20.9604 1.33765 14.3793ZM9.36333 16.7202C9.62682 16.7202 9.88772 16.6683 10.1312 16.5674C10.3746 16.4666 10.5958 16.3188 10.7821 16.1325C10.9684 15.9462 11.1162 15.725 11.217 15.4816C11.3179 15.2381 11.3697 14.9772 11.3697 14.7137C11.3697 14.4503 11.3179 14.1894 11.217 13.9459C11.1162 13.7025 10.9684 13.4813 10.7821 13.295C10.5958 13.1087 10.3746 12.9609 10.1312 12.8601C9.88772 12.7592 9.62682 12.7073 9.36333 12.7073C8.83119 12.7073 8.32085 12.9187 7.94457 13.295C7.5683 13.6713 7.35691 14.1816 7.35691 14.7137C7.35691 15.2459 7.5683 15.7562 7.94457 16.1325C8.32085 16.5088 8.83119 16.7202 9.36333 16.7202ZM16.0514 16.7202C16.3149 16.7202 16.5758 16.6683 16.8192 16.5674C17.0627 16.4666 17.2838 16.3188 17.4702 16.1325C17.6565 15.9462 17.8043 15.725 17.9051 15.4816C18.0059 15.2381 18.0578 14.9772 18.0578 14.7137C18.0578 14.4503 18.0059 14.1894 17.9051 13.9459C17.8043 13.7025 17.6565 13.4813 17.4702 13.295C17.2838 13.1087 17.0627 12.9609 16.8192 12.8601C16.5758 12.7592 16.3149 12.7073 16.0514 12.7073C15.5193 12.7073 15.0089 12.9187 14.6326 13.295C14.2564 13.6713 14.045 14.1816 14.045 14.7137C14.045 15.2459 14.2564 15.7562 14.6326 16.1325C15.0089 16.5088 15.5193 16.7202 16.0514 16.7202ZM24.7459 14.7137C24.7459 15.2459 24.5345 15.7562 24.1582 16.1325C23.7819 16.5088 23.2716 16.7202 22.7395 16.7202C22.2073 16.7202 21.697 16.5088 21.3207 16.1325C20.9444 15.7562 20.733 15.2459 20.733 14.7137C20.733 14.1816 20.9444 13.6713 21.3207 13.295C21.697 12.9187 22.2073 12.7073 22.7395 12.7073C23.2716 12.7073 23.7819 12.9187 24.1582 13.295C24.5345 13.6713 24.7459 14.1816 24.7459 14.7137Z" fill="white"/>
</svg>
