<svg width="33" height="33" viewBox="0 0 33 33" fill="none" xmlns="http://www.w3.org/2000/svg">
<path fill-rule="evenodd" clip-rule="evenodd" d="M17.5569 5.0963C17.5572 4.88484 17.6194 4.67811 17.7359 4.50164C17.8524 4.32517 18.0181 4.18671 18.2124 4.10337C18.4068 4.02004 18.6213 3.99548 18.8294 4.03273C19.0376 4.06999 19.2302 4.16742 19.3836 4.31299L29.8587 14.2889C30.7801 15.1669 30.748 16.6485 29.7897 17.4847L19.3483 26.5955C19.1917 26.7315 18.9993 26.8196 18.7941 26.8494C18.5888 26.8792 18.3794 26.8493 18.1906 26.7634C18.0018 26.6775 17.8418 26.5391 17.7294 26.3648C17.6171 26.1904 17.5572 25.9875 17.5569 25.7801V21.6533C17.5569 21.6533 6.34507 19.634 2.74956 26.2343C2.41409 26.8507 1.10751 27.0658 1.37396 23.9952C2.48471 18.3451 4.75438 9.52166 17.5569 9.52166V5.0963Z" fill="white"/>
<path opacity="0.03" fill-rule="evenodd" clip-rule="evenodd" d="M25.2873 9.97113L27.366 14.1284C27.5453 14.4858 27.6003 14.8927 27.5224 15.2849C27.4445 15.6771 27.2381 16.0321 26.9358 16.2938L17.6276 24.3869C17.6276 24.3869 17.1782 26.6389 18.5297 26.6389C19.8812 26.6389 30.6934 16.7288 30.6934 16.7288C30.6934 16.7288 31.1429 15.3772 29.7929 14.0257C28.4398 12.6742 25.2873 9.97113 25.2873 9.97113Z" fill="#161823"/>
<path opacity="0.09" fill-rule="evenodd" clip-rule="evenodd" d="M17.5554 10V21.7127C17.5554 21.7127 6.82831 20.2006 3.46715 25.3178C0.234406 30.2392 0.531355 19.7576 5.39813 14.5377C10.2649 9.31781 17.5554 10 17.5554 10Z" fill="url(#paint0_radial_152_403)"/>
<defs>
<radialGradient id="paint0_radial_152_403" cx="0" cy="0" r="1" gradientUnits="userSpaceOnUse" gradientTransform="translate(17.9509 29.3028) rotate(-113.046) scale(14.338 14.0943)">
<stop/>
<stop offset="0.995" stop-opacity="0.01"/>
<stop offset="1" stop-opacity="0.01"/>
</radialGradient>
</defs>
</svg>
