<svg width="33" height="33" viewBox="0 0 33 33" fill="none" xmlns="http://www.w3.org/2000/svg">
<mask id="mask0_152_384" style="mask-type:luminance" maskUnits="userSpaceOnUse" x="0" y="0" width="33" height="33">
<path d="M32.1027 0H0V32.1027H32.1027V0Z" fill="white"/>
</mask>
<g mask="url(#mask0_152_384)">
<path fill-rule="evenodd" clip-rule="evenodd" d="M10.0322 3.00964C14.045 3.00964 16.0514 5.68487 16.0514 5.68487C16.0514 5.68487 18.0578 3.00964 22.0707 3.00964C26.7523 3.00964 30.0964 6.68807 30.0964 11.3697C30.0964 16.7202 25.7238 21.4897 21.7363 25.0803C19.2744 27.297 17.389 28.7587 16.0514 28.7587C14.7138 28.7587 12.7749 27.2859 10.3666 25.0803C6.44666 21.4904 2.00647 16.7202 2.00647 11.3697C2.00647 6.68807 5.3505 3.00964 10.0322 3.00964Z" fill="#FE2C55"/>
<path fill-rule="evenodd" clip-rule="evenodd" d="M3.21277 16.3186C4.80082 19.6584 7.70369 22.6417 10.3665 25.0803C12.7748 27.2859 14.7137 28.7587 16.0513 28.7587C17.3889 28.7587 19.2743 27.297 21.7362 25.0803C25.7238 21.4897 30.0963 16.7202 30.0963 11.3697C30.0963 11.2528 30.0941 11.1365 30.09 11.0209C27.5109 18.2744 18.2969 24.7459 15.7171 24.7459C13.7945 24.7459 7.50528 21.1518 3.21277 16.3186Z" fill="black" fill-opacity="0.03"/>
</g>
</svg>
