<svg width="35" height="35" viewBox="0 0 35 35" fill="none" xmlns="http://www.w3.org/2000/svg">
<path d="M17.5 0C27.165 2.06162e-06 35 7.83502 35 17.5C35 27.165 27.165 35 17.5 35C7.83502 35 2.06176e-06 27.165 0 17.5C0 7.83502 7.83502 0 17.5 0ZM17.1064 10V11.4033C16.4923 11.4558 15.9308 11.6013 15.4219 11.8408C14.77 12.1436 14.2536 12.5692 13.874 13.1182C13.4984 13.667 13.3106 14.3067 13.3105 15.0371C13.3105 15.9251 13.5906 16.6379 14.1504 17.1748C14.7141 17.7076 15.4811 18.1048 16.4512 18.3672L17.1064 18.5439V22.1885C16.8358 22.1564 16.5825 22.0988 16.3477 22.0068C15.9911 21.8656 15.7009 21.6509 15.4785 21.3643C15.2564 21.0778 15.1303 20.7187 15.0996 20.2871H13C13.0307 21.1104 13.2337 21.8087 13.6094 22.3818C13.989 22.955 14.5146 23.3907 15.1855 23.6895C15.7433 23.9363 16.3837 24.0792 17.1064 24.1221V25.5H18.0498V24.1221C18.7896 24.0782 19.434 23.9314 19.9824 23.6777C20.6496 23.3669 21.1599 22.9367 21.5127 22.3877C21.8653 21.8348 22.042 21.1951 22.042 20.4688C22.042 19.9319 21.9456 19.4631 21.7539 19.0635C21.5622 18.6641 21.3013 18.3235 20.9717 18.041C20.6458 17.7585 20.2755 17.5236 19.8613 17.3379C19.4512 17.1523 19.0237 17.0054 18.5791 16.8965L18.0498 16.7568V13.3086C18.4838 13.363 18.8501 13.5011 19.1484 13.7236C19.5472 14.0183 19.7735 14.4302 19.8271 14.959H21.8809C21.8694 14.2607 21.6827 13.6433 21.3223 13.1064C20.9618 12.5656 20.4657 12.1436 19.833 11.8408C19.3102 11.5858 18.7157 11.4375 18.0498 11.3945V10H17.1064ZM18.0498 18.8037C18.3652 18.8984 18.6471 19.0034 18.8955 19.1182C19.2137 19.2595 19.4613 19.4374 19.6377 19.6514C19.8139 19.8612 19.9043 20.1275 19.9082 20.4502C19.9044 20.8054 19.8019 21.1164 19.6025 21.3828C19.4032 21.6451 19.1271 21.8507 18.7744 22C18.5556 22.0911 18.3139 22.1506 18.0498 22.1846V18.8037ZM17.1064 16.501C16.9892 16.4643 16.8722 16.4253 16.7559 16.3818C16.5181 16.293 16.301 16.1839 16.1055 16.0547C15.9101 15.9215 15.7546 15.7599 15.6396 15.5703C15.5285 15.3807 15.4737 15.1566 15.4736 14.8984C15.4775 14.5876 15.5637 14.3105 15.7324 14.0684C15.9011 13.8264 16.1448 13.6344 16.4629 13.4932C16.6543 13.4082 16.8692 13.3522 17.1064 13.3184V16.501Z" fill="#FE2B54"/>
</svg>
