<svg width="197" height="114" viewBox="0 0 197 114" fill="none" xmlns="http://www.w3.org/2000/svg">
<g clip-path="url(#clip0_63_116)">
<path d="M44.3398 16.2582V0.219283H49.9854C51.2123 0.219283 52.2305 0.433346 53.0399 0.861466C53.8544 1.28959 54.4628 1.88218 54.8652 2.63923C55.2672 3.39105 55.4682 4.26034 55.4682 5.24712C55.4682 6.22867 55.2645 7.09273 54.8571 7.83937C54.4551 8.58074 53.8467 9.15766 53.0322 9.57013C52.2228 9.9826 51.2046 10.1888 49.9774 10.1888H45.701V8.10564H49.7609C50.5342 8.10564 51.1634 7.99337 51.6479 7.76886C52.1377 7.54436 52.4962 7.21807 52.723 6.78992C52.9498 6.36181 53.063 5.84756 53.063 5.24712C53.063 4.6415 52.9471 4.11676 52.7153 3.67297C52.4885 3.2292 52.13 2.88983 51.6401 2.65489C51.1557 2.41472 50.5188 2.29464 49.7301 2.29464H46.7296V16.2582H44.3398ZM52.1584 9.02191L56.0713 16.2582H53.3492L49.5137 9.02191H52.1584ZM60.7655 0.219283V16.2582H58.376V0.219283H60.7655ZM77.4002 5.43508H74.9873C74.8945 4.91299 74.7216 4.45353 74.469 4.05674C74.2164 3.65994 73.9072 3.32318 73.5413 3.04646C73.1751 2.76975 72.7654 2.56091 72.3114 2.41994C71.8631 2.27898 71.386 2.20849 70.8808 2.20849C69.9682 2.20849 69.151 2.44082 68.4294 2.9055C67.7127 3.37017 67.1455 4.05151 66.7281 4.94953C66.3156 5.84752 66.1093 6.94396 66.1093 8.23877C66.1093 9.544 66.3156 10.6457 66.7281 11.5437C67.1455 12.4417 67.7154 13.1204 68.4371 13.5799C69.1587 14.0393 69.9709 14.269 70.8731 14.269C71.3733 14.269 71.8474 14.2012 72.296 14.0654C72.7496 13.9245 73.1597 13.7182 73.5256 13.4467C73.8918 13.1752 74.201 12.8437 74.4536 12.4521C74.7116 12.0553 74.8895 11.6011 74.9873 11.0895L77.4002 11.0973C77.2713 11.8857 77.0213 12.6114 76.6501 13.2744C76.2839 13.9323 75.8122 14.5014 75.2349 14.9817C74.6623 15.4568 74.0077 15.8249 73.2706 16.0859C72.5332 16.347 71.7291 16.4775 70.8577 16.4775C69.4864 16.4775 68.2645 16.1486 67.1921 15.4908C66.1196 14.8277 65.274 13.8801 64.6555 12.6479C64.0421 11.4157 63.7352 9.94602 63.7352 8.23877C63.7352 6.52626 64.0444 5.05654 64.6633 3.82962C65.2821 2.59746 66.1274 1.65245 67.1998 0.994602C68.2722 0.331534 69.4914 0 70.8577 0C71.698 0 72.4816 0.122694 73.2086 0.368084C73.9407 0.608247 74.598 0.963276 75.1806 1.43317C75.7633 1.89784 76.2454 2.46693 76.6266 3.14044C77.0083 3.80872 77.2662 4.5736 77.4002 5.43508ZM81.491 16.2582H78.9545L84.6541 0.219283H87.4147L93.1143 16.2582H90.5778L86.1001 3.13261H85.9764L81.491 16.2582ZM81.9165 9.97737H90.1446V12.0136H81.9165V9.97737Z" fill="#FE2B54"/>
<path d="M114.319 5.43508H111.906C111.814 4.91299 111.641 4.45353 111.388 4.05674C111.136 3.65994 110.826 3.32318 110.46 3.04646C110.094 2.76975 109.684 2.56091 109.231 2.41994C108.782 2.27898 108.305 2.20849 107.8 2.20849C106.888 2.20849 106.07 2.44082 105.348 2.9055C104.632 3.37017 104.065 4.05151 103.647 4.94953C103.235 5.84752 103.029 6.94396 103.029 8.23877C103.029 9.544 103.235 10.6457 103.647 11.5437C104.065 12.4417 104.634 13.1204 105.356 13.5799C106.078 14.0393 106.89 14.269 107.792 14.269C108.292 14.269 108.767 14.2012 109.215 14.0654C109.669 13.9245 110.079 13.7182 110.445 13.4467C110.811 13.1752 111.12 12.8437 111.373 12.4521C111.631 12.0553 111.809 11.6011 111.906 11.0895L114.319 11.0973C114.19 11.8857 113.94 12.6114 113.569 13.2744C113.203 13.9323 112.731 14.5014 112.154 14.9817C111.582 15.4568 110.927 15.8249 110.19 16.0859C109.452 16.347 108.648 16.4775 107.777 16.4775C106.405 16.4775 105.184 16.1486 104.111 15.4908C103.039 14.8277 102.193 13.8801 101.575 12.6479C100.961 11.4157 100.654 9.94602 100.654 8.23877C100.654 6.52626 100.964 5.05654 101.582 3.82962C102.201 2.59746 103.047 1.65245 104.119 0.994602C105.191 0.331534 106.41 0 107.777 0C108.617 0 109.401 0.122694 110.128 0.368084C110.86 0.608247 111.517 0.963276 112.1 1.43317C112.682 1.89784 113.164 2.46693 113.546 3.14044C113.927 3.80872 114.185 4.5736 114.319 5.43508ZM130.936 8.23877C130.936 9.95125 130.627 11.4236 130.008 12.6557C129.39 13.8827 128.541 14.8277 127.464 15.4908C126.392 16.1486 125.172 16.4775 123.806 16.4775C122.435 16.4775 121.21 16.1486 120.133 15.4908C119.06 14.8277 118.215 13.8801 117.596 12.6479C116.978 11.4157 116.668 9.94602 116.668 8.23877C116.668 6.52626 116.978 5.05654 117.596 3.82962C118.215 2.59746 119.06 1.65245 120.133 0.994602C121.21 0.331534 122.435 0 123.806 0C125.172 0 126.392 0.331534 127.464 0.994602C128.541 1.65245 129.39 2.59746 130.008 3.82962C130.627 5.05654 130.936 6.52626 130.936 8.23877ZM128.57 8.23877C128.57 6.93351 128.361 5.83449 127.943 4.9417C127.531 4.04367 126.964 3.36494 126.242 2.9055C125.526 2.44082 124.714 2.20849 123.806 2.20849C122.894 2.20849 122.079 2.44082 121.362 2.9055C120.646 3.36494 120.079 4.04367 119.661 4.9417C119.249 5.83449 119.042 6.93351 119.042 8.23877C119.042 9.544 119.249 10.6457 119.661 11.5437C120.079 12.4364 120.646 13.1152 121.362 13.5799C122.079 14.0393 122.894 14.269 123.806 14.269C124.714 14.269 125.526 14.0393 126.242 13.5799C126.964 13.1152 127.531 12.4364 127.943 11.5437C128.361 10.6457 128.57 9.544 128.57 8.23877ZM133.916 0.219283H136.816L141.858 12.6871H142.043L147.086 0.219283H149.986V16.2582H147.712V4.65191H147.565L142.894 16.2348H141.007L136.336 4.64411H136.189V16.2582H133.916V0.219283Z" fill="#D0FFFE"/>
<path d="M2.70191 32.2047H31.22L32.7209 41.7047C31.0949 39.1712 29.594 37.3187 28.2181 36.1472C25.654 33.9622 23.2931 32.8697 21.1355 32.8697H20.854V59.2797C20.854 61.4647 21.4638 63.0797 22.6833 64.1247C23.0898 64.4731 23.6371 64.7737 24.325 65.0272C25.2005 65.3122 25.951 65.4547 26.5764 65.4547H7.67381C8.29921 65.4547 9.03404 65.3122 9.87833 65.0272C12.1923 64.2356 13.3493 62.3197 13.3493 59.2797V32.8697H12.9271C10.9884 32.8697 8.59626 34.0412 5.75071 36.3847C5.09404 36.9231 4.34357 37.6672 3.49928 38.6172C2.74881 39.4406 2.10778 40.2162 1.57619 40.9447L0.87262 41.8947L2.70191 32.2047ZM47.938 37.9047V59.7547C47.938 61.7497 48.5008 63.2222 49.6266 64.1722C50.7208 65.0272 51.9249 65.4547 53.2382 65.4547H35.3675C35.5863 65.4547 35.8366 65.4387 36.118 65.4072C36.4306 65.3756 36.8685 65.2487 37.4313 65.0272C37.9942 64.8056 38.4786 64.5206 38.8854 64.1722C39.3229 63.7922 39.7139 63.2222 40.058 62.4622C40.4017 61.7022 40.5739 60.7997 40.5739 59.7547V37.9047C40.5739 35.8462 40.0111 34.3737 38.8854 33.4872C38.4475 33.1072 37.9473 32.8222 37.3844 32.6322C36.6339 32.3472 35.9615 32.2047 35.3675 32.2047H53.2382C52.4878 32.2047 51.5497 32.4422 50.4239 32.9172C48.7665 33.6139 47.938 35.2762 47.938 37.9047ZM67.1029 37.0022V60.6572C67.1029 62.7156 67.8377 64.0772 69.3075 64.7422C70.4017 65.2172 71.2775 65.4547 71.9341 65.4547H54.8608C55.5175 65.4547 56.3772 65.2172 57.4406 64.7422C58.91 64.0772 59.6451 62.7156 59.6451 60.6572V37.0022C59.6451 34.8172 58.8946 33.4239 57.3937 32.8222C56.3929 32.4105 55.5486 32.2047 54.8608 32.2047H71.9341C71.246 32.2047 70.3863 32.4105 69.3544 32.8222C67.8534 33.4239 67.1029 34.8172 67.1029 37.0022ZM75.1237 47.8797L82.5346 57.7122C83.9417 59.5487 85.302 61.1481 86.6153 62.5097C87.9598 63.8712 88.9448 64.7262 89.5703 65.0747L90.4146 65.5497L79.9079 65.4547L76.0618 60.4672L69.7765 52.0597C69.3075 51.4262 68.8538 51.0462 68.4163 50.9197C68.0095 50.7612 67.7127 50.7297 67.5251 50.8247C67.3686 50.9197 67.2591 51.0306 67.1968 51.1572L77.2813 38.9497C78.1567 37.7781 78.5008 36.7172 78.3132 35.7672C78.1567 34.7856 77.7034 33.9937 76.9529 33.3922C76.2025 32.7589 75.3582 32.4105 74.4201 32.3472H87.0375L86.756 32.3947C84.5669 33.028 82.3001 34.5322 79.9548 36.9072L78.5946 38.3322L77.9379 39.1397L74.7953 42.9397C74.2636 43.5412 73.9665 44.2062 73.9041 44.9347C73.9041 45.5362 73.9822 46.0112 74.1387 46.3597C74.2948 46.7081 74.6231 47.2147 75.1237 47.8797ZM90.3278 32.2047H118.846L120.347 41.7047C118.721 39.1712 117.22 37.3187 115.844 36.1472C113.28 33.9622 110.919 32.8697 108.761 32.8697H108.48V59.2797C108.48 61.4647 109.09 63.0797 110.309 64.1247C110.716 64.4731 111.263 64.7737 111.951 65.0272C112.826 65.3122 113.577 65.4547 114.202 65.4547H95.2997C95.9249 65.4547 96.66 65.3122 97.5043 65.0272C99.818 64.2356 100.975 62.3197 100.975 59.2797V32.8697H100.553C98.6142 32.8697 96.2221 34.0412 93.3766 36.3847C92.72 36.9231 91.9695 37.6672 91.1252 38.6172C90.3747 39.4406 89.7335 40.2162 89.2021 40.9447L88.4986 41.8947L90.3278 32.2047ZM142.412 31.7772C145.039 31.7772 147.399 32.268 149.495 33.2497C151.589 34.1997 153.247 35.5137 154.466 37.1922C156.905 40.4537 158.093 44.3487 158.031 48.8772C158 51.0937 157.609 53.2156 156.859 55.2422C156.139 57.2372 155.092 59.0422 153.716 60.6572C152.371 62.2722 150.589 63.5547 148.369 64.5047C146.149 65.4547 143.678 65.9137 140.958 65.8822C138.331 65.8506 135.939 65.3122 133.781 64.2672C131.624 63.1906 129.904 61.7656 128.622 59.9922C126.026 56.4456 124.807 52.6137 124.963 48.4972C124.994 43.5256 126.652 39.4881 129.935 36.3847C133.25 33.2814 137.408 31.7455 142.412 31.7772ZM149.26 47.7372C148.697 43.3987 147.446 39.6622 145.508 36.5272C143.6 33.4555 141.333 32.1414 138.706 32.5847C136.643 32.9014 135.11 34.5322 134.11 37.4772C133.172 40.3906 132.999 44.0637 133.594 48.4972C134.188 52.8356 135.423 56.6356 137.299 59.8972C139.175 63.0956 141.348 64.7897 143.819 64.9797C146.32 65.2331 148.025 63.7922 148.932 60.6572C149.87 57.5537 149.979 53.2472 149.26 47.7372ZM173.646 37.0022V60.6572C173.646 62.7156 174.381 64.0772 175.851 64.7422C176.945 65.2172 177.821 65.4547 178.478 65.4547H161.404C162.061 65.4547 162.921 65.2172 163.984 64.7422C165.454 64.0772 166.189 62.7156 166.189 60.6572V37.0022C166.189 34.8172 165.438 33.4239 163.937 32.8222C162.936 32.4105 162.092 32.2047 161.404 32.2047H178.478C177.789 32.2047 176.93 32.4105 175.898 32.8222C174.397 33.4239 173.646 34.8172 173.646 37.0022ZM181.667 47.8797L189.078 57.7122C190.485 59.5487 191.845 61.1481 193.159 62.5097C194.503 63.8712 195.488 64.7262 196.114 65.0747L196.958 65.5497L186.451 65.4547L182.605 60.4672L176.32 52.0597C175.851 51.4262 175.397 51.0462 174.96 50.9197C174.553 50.7612 174.256 50.7297 174.069 50.8247C173.912 50.9197 173.803 51.0306 173.74 51.1572L183.825 38.9497C184.7 37.7781 185.044 36.7172 184.857 35.7672C184.7 34.7856 184.247 33.9937 183.496 33.3922C182.746 32.7589 181.902 32.4105 180.964 32.3472H193.581L193.3 32.3947C191.11 33.028 188.844 34.5322 186.498 36.9072L185.138 38.3322L184.481 39.1397L181.339 42.9397C180.807 43.5412 180.51 44.2062 180.448 44.9347C180.448 45.5362 180.526 46.0112 180.682 46.3597C180.838 46.7081 181.167 47.2147 181.667 47.8797Z" fill="#D0FFFE"/>
<path d="M53.2242 81.2247L53.2711 90.2022C52.4894 88.3022 50.9258 86.2597 48.5806 84.0747C46.7671 82.4281 44.9532 81.2406 43.1396 80.5122C41.1385 79.6572 39.1216 79.6887 37.0889 80.6072C35.2439 81.7156 34.6341 83.5206 35.2596 86.0222C35.6349 87.4472 36.448 88.6031 37.6987 89.4897C38.9494 90.3447 40.7944 91.0572 43.2335 91.6272C48.268 92.8306 51.739 94.5406 53.6463 96.7571C55.5537 98.9421 56.1634 101.903 55.4756 105.64C55.1004 107.666 54.2403 109.329 52.8958 110.627C51.5825 111.894 50.0973 112.749 48.4399 113.192C46.814 113.667 45.0158 113.889 43.0458 113.857C37.5111 113.762 33.0395 112.606 29.6311 110.39V99.1797C30.8819 101.871 32.6799 104.452 35.0251 106.922C37.433 109.392 39.9344 111.023 42.5299 111.815C43.9997 112.258 45.3753 112.511 46.6575 112.575C47.9708 112.606 49.1277 112.337 50.1284 111.767C51.1292 111.197 51.7075 110.295 51.8639 109.06C52.0827 107.223 51.426 105.576 49.8939 104.12C48.393 102.663 45.4849 101.333 41.1696 100.13C37.042 99.0212 34.1497 97.4856 32.4923 95.5222C30.835 93.5587 30.1471 91.0097 30.4285 87.8747C30.7099 84.8981 32.0389 82.6812 34.4154 81.2247C36.7918 79.7681 39.7625 79.0556 43.3273 79.0872C45.1096 79.1187 46.8294 79.3087 48.4868 79.6572C50.0189 79.9737 51.223 80.3222 52.0984 80.7022L53.2242 81.2247ZM90.75 85.4047V107.255C90.75 109.218 91.2502 110.706 92.2509 111.72C93.4078 112.67 94.5178 113.081 95.5812 112.955H78.5547C79.1176 112.955 79.7274 112.828 80.384 112.575C82.3225 111.751 83.2921 109.978 83.2921 107.255V96.0922H70.9562V107.255C70.9562 109.218 71.4564 110.706 72.4571 111.72C73.614 112.67 74.724 113.081 75.7874 112.955H58.7609C58.9797 112.955 59.2142 112.939 59.4645 112.907C59.7144 112.876 60.0897 112.765 60.5902 112.575C61.0904 112.353 61.5283 112.068 61.9036 111.72C62.31 111.34 62.6694 110.77 62.9824 110.01C63.295 109.218 63.4668 108.3 63.4983 107.255V85.4047C63.4983 82.7762 62.7478 81.1137 61.2469 80.4172C60.2773 79.9422 59.433 79.7047 58.714 79.7047H75.7874C75.2245 79.7047 74.5833 79.8472 73.8643 80.1322C73.0511 80.4172 72.3633 80.9872 71.8005 81.8422C71.2376 82.6972 70.9562 83.8847 70.9562 85.4047V95.4272H83.2921V85.4047C83.2921 82.7762 82.5416 81.1137 81.0407 80.4172C80.0711 79.9422 79.2268 79.7047 78.5078 79.7047H95.5812C95.0183 79.7047 94.3771 79.8472 93.6581 80.1322C92.8449 80.4172 92.1571 80.9872 91.5943 81.8422C91.0314 82.6972 90.75 83.8847 90.75 85.4047ZM116.761 79.2772C119.387 79.2772 121.748 79.7681 123.843 80.7497C125.938 81.6997 127.596 83.0137 128.815 84.6922C131.254 87.9537 132.443 91.8487 132.38 96.3772C132.349 98.5937 131.958 100.716 131.207 102.742C130.488 104.737 129.441 106.542 128.065 108.157C126.72 109.772 124.938 111.055 122.718 112.005C120.497 112.955 118.027 113.414 115.307 113.382C112.68 113.351 110.288 112.812 108.13 111.767C105.973 110.691 104.253 109.266 102.971 107.492C100.375 103.946 99.1556 100.114 99.3121 95.9972C99.3433 91.0256 101.001 86.9881 104.284 83.8847C107.599 80.7812 111.758 79.2456 116.761 79.2772ZM123.609 95.2372C123.046 90.8987 121.795 87.1622 119.856 84.0272C117.949 80.9556 115.682 79.6412 113.055 80.0847C110.991 80.4012 109.459 82.0322 108.459 84.9772C107.52 87.8906 107.349 91.5637 107.943 95.9972C108.537 100.336 109.772 104.136 111.648 107.397C113.524 110.596 115.698 112.29 118.168 112.48C120.67 112.733 122.373 111.292 123.28 108.157C124.219 105.054 124.328 100.747 123.609 95.2372ZM163.145 82.9822C164.521 84.7237 165.084 87.0512 164.834 89.9647C164.615 92.8462 163.693 94.9681 162.067 96.3297C160.691 97.4697 159.08 98.2612 157.235 98.7047C155.39 99.1481 152.748 99.1956 149.309 98.8472C152.904 98.6256 155.297 97.4856 156.485 95.4272C157.486 93.7806 157.986 91.6431 157.986 89.0147C157.986 85.9431 157.345 83.6472 156.063 82.1272C154.812 80.6072 152.904 79.8631 150.34 79.8947C149.246 79.8947 148.605 79.9106 148.417 79.9422V107.207C148.417 109.836 149.246 111.498 150.903 112.195C152.092 112.701 153.03 112.955 153.718 112.955H135.706C136.425 112.955 137.348 112.701 138.474 112.195C140.131 111.498 140.96 109.836 140.96 107.207V84.0272C140.96 83.0772 140.756 82.2697 140.35 81.6047C139.943 80.9397 139.396 80.4962 138.708 80.2747C137.801 79.8947 136.957 79.7047 136.175 79.7047L143.586 79.5147L150.34 79.3247C153.78 79.2612 156.485 79.4831 158.455 79.9897C160.425 80.4962 161.989 81.4937 163.145 82.9822Z" fill="#24F5EF"/>
<path d="M116.089 79.7047C124.138 79.7047 130.663 87.1479 130.663 96.3297C130.663 105.511 124.138 112.955 116.089 112.955C108.04 112.955 101.515 105.511 101.515 96.3297C101.515 87.1479 108.04 79.7047 116.089 79.7047ZM115.401 84.6708V86.7693C114.514 86.8503 113.699 87.0604 112.956 87.3996C111.981 87.8394 111.207 88.4569 110.636 89.2521C110.065 90.0471 109.78 90.9781 109.78 92.0441C109.78 93.3334 110.205 94.3696 111.056 95.1527C111.912 95.9357 113.072 96.5295 114.535 96.9329L115.401 97.1718V103.311C114.96 103.264 114.544 103.171 114.152 103.033C113.563 102.816 113.078 102.487 112.697 102.048C112.323 101.602 112.108 101.045 112.055 100.376H109.289C109.348 101.49 109.66 102.454 110.226 103.267C110.791 104.075 111.573 104.698 112.572 105.138C113.392 105.498 114.334 105.711 115.401 105.776V107.804H116.864V105.775C117.977 105.706 118.946 105.479 119.773 105.093C120.785 104.623 121.555 103.981 122.085 103.168C122.62 102.355 122.887 101.424 122.887 100.376C122.887 99.5447 122.724 98.8305 122.397 98.2341C122.075 97.6379 121.653 97.1378 121.13 96.7341C120.606 96.3307 120.038 96.005 119.426 95.758C118.813 95.5113 118.215 95.3155 117.632 95.171L116.864 94.9684V89.1792C117.618 89.2613 118.264 89.4869 118.801 89.8574C119.491 90.3273 119.884 90.99 119.979 91.8453H122.638C122.614 90.8515 122.329 89.9721 121.781 89.207C121.234 88.4358 120.484 87.8305 119.532 87.3905C118.744 87.0241 117.855 86.811 116.864 86.7499V84.6708H115.401ZM116.864 97.5758C117.451 97.7397 117.981 97.9257 118.453 98.1347C118.976 98.3637 119.39 98.6527 119.693 99.0022C120.002 99.3517 120.157 99.8005 120.157 100.349C120.157 100.951 119.982 101.478 119.631 101.93C119.28 102.376 118.798 102.725 118.185 102.978C117.783 103.142 117.343 103.251 116.864 103.306V97.5758ZM115.401 94.5769C115.183 94.5118 114.96 94.4395 114.732 94.3577C114.345 94.2128 113.982 94.0354 113.643 93.8244C113.31 93.6076 113.039 93.3395 112.831 93.0203C112.629 92.701 112.528 92.3213 112.528 91.8816C112.528 91.3574 112.677 90.8906 112.974 90.481C113.277 90.0654 113.703 89.74 114.25 89.5053C114.594 89.3539 114.978 89.2498 115.401 89.1934V94.5769Z" fill="#24F5EF"/>
<path d="M163.199 8.11537L164.167 9.09482L165.134 8.11537L164.167 7.13596L163.199 8.11537ZM164.167 8.11537V8.28501H194.32V8.11537V7.94573H164.167V8.11537Z" fill="#D0FFFE"/>
<path d="M31.1202 8.11537L30.1531 7.13596L29.1859 8.11537L30.1531 9.09482L31.1202 8.11537ZM0 8.11537V8.28501H30.1531V8.11537V7.94573H0V8.11537Z" fill="#D0FFFE"/>
</g>
<defs>
<clipPath id="clip0_63_116">
<rect width="197" height="114" fill="white"/>
</clipPath>
</defs>
</svg>
