<svg width="33" height="33" viewBox="0 0 33 33" fill="none" xmlns="http://www.w3.org/2000/svg">
<path d="M5.35046 6.01928C5.35046 5.30977 5.63232 4.62931 6.13402 4.12761C6.63572 3.62591 7.31618 3.34406 8.02569 3.34406H24.0771C24.7866 3.34406 25.467 3.62591 25.9687 4.12761C26.4704 4.62931 26.7523 5.30977 26.7523 6.01928V26.2574C26.7521 26.4994 26.6862 26.7369 26.5617 26.9444C26.4371 27.152 26.2586 27.3219 26.0451 27.436C25.8316 27.55 25.5912 27.6041 25.3494 27.5923C25.1077 27.5805 24.8736 27.5033 24.6723 27.3689L16.4232 21.858C16.3132 21.7844 16.1838 21.7451 16.0514 21.7451C15.919 21.7451 15.7896 21.7844 15.6795 21.858L7.43045 27.3689C7.2291 27.5033 6.99507 27.5805 6.75331 27.5923C6.51154 27.6041 6.27111 27.55 6.05763 27.436C5.84415 27.3219 5.66562 27.152 5.54109 26.9444C5.41655 26.7369 5.35067 26.4994 5.35046 26.2574V6.01928Z" fill="white"/>
<path d="M5.39327 5.5431C5.36473 5.69737 5.35046 5.8561 5.35046 6.01929V26.2574C5.35067 26.4994 5.41655 26.7369 5.54109 26.9444C5.66562 27.152 5.84415 27.3219 6.05763 27.436C6.27111 27.5501 6.51154 27.6041 6.75331 27.5923C6.99507 27.5805 7.2291 27.5033 7.43045 27.3689L15.6795 21.858C15.7593 21.8048 15.8495 21.7694 15.9441 21.7542C16.0387 21.739 16.1355 21.7442 16.2279 21.7697L15.6568 21.5048C15.3657 21.3695 15.0462 21.3065 14.7255 21.3212C14.4048 21.3358 14.0924 21.4278 13.8149 21.5891C13.0377 22.0426 11.8753 22.7261 10.8053 23.3802C10.0161 23.8604 8.89648 24.3098 7.87989 24.667C6.63725 25.1017 5.39193 24.1493 5.39193 22.8344L5.39327 5.5431ZM16.4299 21.8647L24.6723 27.3689C24.8736 27.5033 25.1077 27.5805 25.3494 27.5923C25.5912 27.6041 25.8316 27.5501 26.0451 27.436C26.2586 27.3219 26.4371 27.152 26.5617 26.9444C26.6862 26.7369 26.7521 26.4994 26.7523 26.2574V6.01929C26.7524 5.51793 26.6117 5.02661 26.3461 4.60138C26.0805 4.17615 25.7007 3.8341 25.2501 3.61426C25.531 3.95401 25.6969 4.39007 25.6916 4.86626C25.636 10.8625 25.2358 16.8506 24.4931 22.801C24.3272 24.1252 22.928 24.8783 21.7162 24.3165L16.4299 21.8647Z" fill="black" fill-opacity="0.03"/>
</svg>
