<svg width="444" height="513" viewBox="0 0 444 513" fill="none" xmlns="http://www.w3.org/2000/svg">
<path d="M233.193 0.427701C261.086 1.62517e-06 288.774 0.222404 316.446 0C317.366 34.7463 331.406 66.0197 353.744 89.1839L353.71 89.1497C377.752 110.894 409.036 124.991 443.523 127.386L444 127.42V213.576C411.421 212.755 380.785 205.21 353.165 192.242L354.562 192.824C341.203 186.374 329.906 179.754 319.172 172.363L320.058 172.945C319.853 235.372 320.262 297.799 319.632 360.003C317.877 391.704 307.381 420.617 290.546 444.756L290.887 444.226C262.739 484.703 217.142 511.272 165.292 512.846H165.054C162.958 512.949 160.487 513 158 513C128.522 513 100.97 504.754 77.4901 490.435L78.1716 490.828C35.4377 465.012 5.96012 420.839 0.507623 369.464L0.439468 368.763C0.0134916 358.07 -0.190978 347.378 0.234998 336.908C8.58413 255.148 76.8085 191.9 159.738 191.9C169.058 191.9 178.191 192.704 187.068 194.227L186.114 194.09C186.54 225.723 185.262 257.373 185.262 289.005C178.055 286.388 169.739 284.865 161.067 284.865C129.238 284.865 102.163 305.292 92.1436 333.811L91.9903 334.324C89.7241 341.629 88.4121 350.029 88.4121 358.72C88.4121 362.244 88.6336 365.734 89.0425 369.156L89.0085 368.746C94.6654 403.748 124.552 430.163 160.589 430.163C161.629 430.163 162.651 430.146 163.674 430.095H163.52C188.448 429.342 210.088 415.878 222.322 395.981L222.492 395.673C227.042 389.309 230.16 381.611 231.199 373.245L231.216 373.005C233.346 334.735 232.494 296.687 232.699 258.416C232.903 172.26 232.494 86.3098 233.125 0.376377L233.193 0.427701Z" fill="url(#paint0_linear_124_439)"/>
<defs>
<linearGradient id="paint0_linear_124_439" x1="444" y1="2.30648e-05" x2="-1.7611" y2="511.465" gradientUnits="userSpaceOnUse">
<stop stop-color="#FF5274"/>
<stop offset="1" stop-color="#FE2B54"/>
</linearGradient>
</defs>
</svg>
